# xmcd
# Track frame offsets:
# 150
# 14886
# 32880
# 45862
# 59414
# 73911
# 90311
# 102664
# 117569
# 132912
#
# Disc length: 2035 seconds
# Revision: 0
# Processed by: cddbd v1.4PL0 Copyright (c) Steve Scherf et al.
# Submitted via: VisiTrax 2.9.5.180 - For more info visit www.synapsa.com
#
DISCID=9007f10a
DTITLE=Charlie Shearer - Breakin' out
DYEAR=2000
DGENRE=
TTITLE0=I just destroed the world
TTITLE1=History repeats itself
TTITLE2=When love not in love with you
TTITLE3=I didn't come this far
TTITLE4=The string
TTITLE5=Denver
TTITLE6=The jukebox has a 45
TTITLE7=Slow death
TTITLE8=Little lady
TTITLE9=At the feet of God
EXTD=
EXTT0=
EXTT1=
EXTT2=
EXTT3=
EXTT4=
EXTT5=
EXTT6=
EXTT7=
EXTT8=
EXTT9=
PLAYORDER=
